<svg xmlns="http://www.w3.org/2000/svg" xmlns:xlink="http://www.w3.org/1999/xlink" xmlns:lucid="lucid" width="1360" height="1760"><g transform="translate(0 0)" lucid:page-tab-id=".Q4MUjXso07N"><path d="M0 0h1360v1760H0z" fill="#fff"/><path d="M256.3 265a5 5 0 0 1 5-5h947.23a5 5 0 0 1 5 5v1030a5 5 0 0 1-5 5H261.3a5 5 0 0 1-5-5z" stroke="#333" fill-opacity="0"/><use xlink:href="#a" transform="matrix(1,0,0,1,264.30759076931713,268) translate(441.2008463541667 19.014973958333332)"/><path d="M120.25 489.95v-.2A19.75 19.75 0 0 1 140 470a19.75 19.75 0 0 1 19.75 19.75A19.75 19.75 0 0 1 140 509.5a19.75 19.75 0 0 1-19.75-19.75v-.2" stroke="#333" fill="#fff"/><path d="M100 475a5 5 0 0 1 5-5h70a5 5 0 0 1 5 5v148a5 5 0 0 1-5 5h-70a5 5 0 0 1-5-5z" fill="none"/><path d="M140 509.5v55.3l40 63.2m-40-63.2L100 628m0-98.75h80" stroke="#333" fill="none"/><use xlink:href="#b" transform="matrix(1,0,0,1,20,627.9989633254834) translate(95.40585937499999 18.011979166666666)"/><path d="M459.64 400c0 33.14-35.8 60-80 60-44.18 0-80-26.86-80-60s35.82-60 80-60c44.2 0 80 26.86 80 60z" stroke="#fff" fill="#3278cc"/><use xlink:href="#c" transform="matrix(1,0,0,1,323.6430272712071,363.99896332548343) translate(32.25755208333333 42.01432291666667)"/><path d="M773.53 400c0 33.14-35.82 60-80 60s-80-26.86-80-60 35.82-60 80-60 80 26.86 80 60z" stroke="#fff" fill="#3278cc"/><use xlink:href="#d" transform="matrix(1,0,0,1,637.530450332184,363.99896332548343) translate(26.453124999999996 42.01432291666667)"/><path d="M172.76 528.4L298.8 400.35M172.77 528.38l-2.47 2.5" stroke="#333" fill="none"/><path d="M299.14 400v.66l-.02.04-.68-.67.73-.73z" stroke="#333" stroke-width=".05" fill="#333"/><path d="M253.15 78a8 8 0 0 1 8-8h836.75a8 8 0 0 1 8 8v25.16a8 8 0 0 1-8 8H261.15a8 8 0 0 1-8-8z" stroke="#000" stroke-opacity="0" stroke-width="2" fill="#fff" fill-opacity="0"/><use xlink:href="#e" transform="matrix(1,0,0,1,273.14655278534315,69.99999999994924) translate(260.80484700520833 31.211126302083333)"/><use xlink:href="#f" transform="matrix(1,0,0,1,273.14655278534315,69.99999999994924) translate(380.535283203125 31.211126302083333)"/><use xlink:href="#g" transform="matrix(1,0,0,1,273.14655278534315,69.99999999994924) translate(416.2103092447917 31.211126302083333)"/><use xlink:href="#h" transform="matrix(1,0,0,1,273.14655278534315,69.99999999994924) translate(479.34415039062503 31.211126302083333)"/><use xlink:href="#i" transform="matrix(1,0,0,1,273.14655278534315,69.99999999994924) translate(515.0191764322917 31.211126302083333)"/><path d="M486.4 109.8H878.8M486.42 109.8h-1.03M878.8 109.8h1.02" stroke="#a9afb8" stroke-width="2" fill="none"/><path d="M253.15 119.16a8 8 0 0 1 8-8h837.7a8 8 0 0 1 8 8V122a8 8 0 0 1-8 8h-837.7a8 8 0 0 1-8-8z" stroke="#000" stroke-opacity="0" stroke-width="2" fill="#fff" fill-opacity="0"/><use xlink:href="#j" transform="matrix(1,0,0,1,273.1465527853436,111.15522395684805) translate(281.9743728298611 16.461006944444446)"/><use xlink:href="#k" transform="matrix(1,0,0,1,273.1465527853436,111.15522395684805) translate(327.42946831597226 16.461006944444446)"/><use xlink:href="#l" transform="matrix(1,0,0,1,273.1465527853436,111.15522395684805) translate(387.75610405815974 16.461006944444446)"/><use xlink:href="#m" transform="matrix(1,0,0,1,273.1465527853436,111.15522395684805) translate(400.4882541232639 16.461006944444446)"/><use xlink:href="#n" transform="matrix(1,0,0,1,273.1465527853436,111.15522395684805) translate(478.2495307074653 16.461006944444446)"/><use xlink:href="#o" transform="matrix(1,0,0,1,273.1465527853436,111.15522395684805) translate(503.67215440538195 16.461006944444446)"/><path d="M660 580c0 33.14-35.82 60-80 60s-80-26.86-80-60 35.82-60 80-60 80 26.86 80 60z" stroke="#fff" fill="#3278cc"/><use xlink:href="#p" transform="matrix(1,0,0,1,524,544) translate(7.070052083333323 32.01197916666666)"/><use xlink:href="#q" transform="matrix(1,0,0,1,524,544) translate(71.07213541666667 32.01197916666666)"/><use xlink:href="#r" transform="matrix(1,0,0,1,524,544) translate(38.45755208333333 52.016666666666666)"/><path d="M993.53 820c0 33.14-35.82 60-80 60s-80-26.86-80-60 35.82-60 80-60 80 26.86 80 60z" stroke="#fff" fill="#3278cc"/><use xlink:href="#s" transform="matrix(1,0,0,1,857.530450332184,784) translate(6.452473958333329 42.01432291666667)"/><use xlink:href="#t" transform="matrix(1,0,0,1,857.530450332184,784) translate(68.25872395833332 42.01432291666667)"/><path d="M465.68 400.47h-5.04v-.95h5.04zm15.1 0h-10.06v-.95h10.07zm15.12 0h-10.07v-.95h10.07zm100.75 0h-5.04v-.95h5.05zm-10.08 0h-9.45v-.95h9.45z" stroke="#333" stroke-width=".05" fill="#333"/><path d="M460.66 400.47h-.53V399.6l.53-.08z" fill="#333"/><path stroke="#333" stroke-width=".05" fill="#333"/><path d="M611.4 400l-14.25 4.63v-9.27z" fill="#333"/><path d="M612.95 400l-16.28 5.3v-10.6zm-15.33 3.98l12.25-3.98-12.25-3.98z" stroke="#333" stroke-width=".05" fill="#333"/><use xlink:href="#u" transform="matrix(1,0,0,1,496.05613984336236,391.93255707548343) translate(0.005000000000002558 12.916666666666668)"/><path d="M973.53 640c0 33.14-35.82 60-80 60s-80-26.86-80-60 35.82-60 80-60 80 26.86 80 60z" stroke="#fff" fill="#3278cc"/><use xlink:href="#v" transform="matrix(1,0,0,1,837.530450332184,604) translate(23.615494791666663 32.01197916666666)"/><use xlink:href="#w" transform="matrix(1,0,0,1,837.530450332184,604) translate(27.999088541666666 52.016666666666666)"/><path d="M1173.53 720c0 33.14-35.82 60-80 60s-80-26.86-80-60 35.82-60 80-60 80 26.86 80 60z" stroke="#fff" fill="#3278cc"/><use xlink:href="#x" transform="matrix(1,0,0,1,1037.530450332184,684) translate(23.272395833333327 32.01197916666666)"/><use xlink:href="#y" transform="matrix(1,0,0,1,1037.530450332184,684) translate(23.462109374999997 52.016666666666666)"/><path d="M720 820c0 33.14-35.82 60-80 60s-80-26.86-80-60 35.82-60 80-60 80 26.86 80 60z" stroke="#fff" fill="#3278cc"/><use xlink:href="#z" transform="matrix(1,0,0,1,584,784) translate(16.030989583333323 32.01197916666666)"/><use xlink:href="#A" transform="matrix(1,0,0,1,584,784) translate(86.04739583333334 32.01197916666666)"/><use xlink:href="#B" transform="matrix(1,0,0,1,584,784) translate(33.54518229166666 52.016666666666666)"/><path d="M726.04 820.48H721v-.96h5.04zm10.15 0h-5.1v-.96h5.1zM794 808l-.15 1.93-.45 1.9-.04.08h-1.02l.15-.37.4-1.76.15-1.82v-4.78h.96zm0-9.6h-.95v-9.6h.96zm0-14.4h-.95v-9.6h.96zm0-14.4h-.95v-9.58h.96zm0-14.38h-.95v-9.6h.96zm0-14.4h-.95v-9.58h.96zm0-14.37h-.95v-9.6h.96zm0-14.4h-.95v-9.6h.96zm0-14.38h-.95v-9.6h.96zm0-14.4h-.95v-9.6h.96zm.83-22.2l-.16.25-.37.9-.22.9-.08 1v4.76h-.95v-4.8l.1-1.08.25-1.08.42-1.02.2-.32zm5.3-3.07l-1 .08-.92.23-.87.37-.26.16-.5-.8.32-.2 1-.43 1.1-.26 1.05-.08z" stroke="#333" stroke-width=".05" fill="#333"/><path d="M721 820.48h-.5v-.87l.5-.08z" fill="#333"/><path stroke="#333" stroke-width=".05" fill="#333"/><path d="M814.85 657.56l-14.26 4.63v-9.28z" fill="#333"/><path d="M816.4 657.56l-16.3 5.3v-10.6zm-15.34 3.98l12.26-3.98-12.26-3.98z" stroke="#333" stroke-width=".05" fill="#333"/><use xlink:href="#C" transform="matrix(1,0,0,1,736.1922394879416,811.93359375) translate(0.005000000000002558 12.916666666666668)"/><path d="M994.5 819.5h-.95v-4.78h.96zm0-9.56h-.95v-9.56h.96zm0-14.34h-.95v-9.57h.96zm0-14.35h-.95v-9.56h.96zm0-14.34h-.95v-9.55h.96zm-1.35-24.77l.75 1.8.45 1.9.15 1.94v4.8h-.95v-4.76l-.14-1.8-.4-1.77-.7-1.67-.3-.5.8-.5zm-9.17-6.66l1.9.45 1.82.75.56.35-.5.8-.5-.3-1.67-.7-1.77-.4-1.82-.15h-5.1v-.95h5.15zm-12.2.8h-10.25v-.95h10.25zm-15.38 0h-8.06v-.95h8.06zm-87.24-2.2l.83.33v1.03l-1.27-.52-.57-.34.5-.8zm-6.3-10.3l.15 1.82.43 1.75.7 1.67.3.5-.8.5-.36-.57-.75-1.8-.45-1.9-.16-1.94v-3.88h.96zm0-7.72h-.95v-3.88h.96z" stroke="#333" stroke-width=".05" fill="#333"/><path d="M994.5 823h-.57v-.1l.1-2.9v-.5h.48z" fill="#333"/><path stroke="#333" stroke-width=".05" fill="#333"/><path d="M867.02 711.67h-9.27l4.64-14.26z" fill="#333"/><path d="M867.68 712.15H857.1l5.3-16.28zm-9.27-.95h7.97l-3.98-12.25z" stroke="#333" stroke-width=".05" fill="#333"/><use xlink:href="#C" transform="matrix(1,0,0,1,869.9894567524578,727.723218842585) translate(0.005000000000002558 12.916666666666668)"/><path d="M988.26 718.77l-.56.35-1.8.75-1.92.45-1.93.15h-6.25v-.95h6.2l1.83-.14 1.76-.42 1.66-.7.5-.3zm-18.68 1.7h-12.45v-.95h12.45zm-29.75-2.1l1.55.63 1.63.4 1.7.13h6.2v.95h-6.25l-1.8-.15-1.77-.42-1.68-.7-.53-.3.5-.82zm-5.7-7.85l.4 1.63.64 1.55.3.46-.83.5-.32-.53-.7-1.68-.42-1.78-.14-1.78.94-.08zm60.38-2.5l-.15 1.93-.45 1.9-.75 1.8-.35.58-.8-.5.3-.5.7-1.67.4-1.76.15-1.82v-5.08h.96zm0-10.22h-.95v-10.2h.96zm0-15.3h-.95v-10.2h.96zm0-15.3h-.95V657h.96zm99.5-8.2h-.94v-4.58h.95zm-99.5-7.1h-.95v-10.2h.96zm99.5-2.07h-.94v-9.16h.95zm-97.93-24.07l-.3.5-.7 1.68-.42 1.76-.14 1.82v5.08h-.95v-5.12l.16-1.93.46-1.9.75-1.8.36-.58zm96.58.08l.75 1.8.45 1.9.16 1.94v4.6h-.94v-4.56l-.15-1.82-.4-1.76-.7-1.67-.3-.5.8-.5zm-9.17-6.66l1.9.45 1.8.75.58.35-.5.8-.5-.3-1.67-.7-1.77-.4-1.82-.15h-1.46V619h1.5zm-81.8 1.68l-.88.37-.5.3-.5-.8.57-.35 1.32-.55z" stroke="#333" stroke-width=".05" fill="#333"/><path d="M1094 659.5h-.94v-.5h.95z" fill="#333"/><path stroke="#333" stroke-width=".05" fill="#333"/><path d="M938.17 708.36h-9.27l4.63-14.27z" fill="#333"/><path d="M938.82 708.83h-10.58l5.3-16.28zm-9.27-.95h7.96l-3.97-12.25z" stroke="#333" stroke-width=".05" fill="#333"/><use xlink:href="#C" transform="matrix(1,0,0,1,1001.6928142898308,611.4335894730297) translate(0.005000000000002558 12.916666666666668)"/><path d="M812.53 640.48h-5.3v-.96h5.3zm-10.63 0h-10.63v-.96h10.63zm-15.94 0h-10.63v-.96h10.63zm-15.94 0H759.4v-.96H770zm-26.5-2.2l1.68.68 1.76.42 1.82.14h5.3v.96h-5.33l-1.94-.16-1.9-.45-1.8-.75-.57-.35.5-.8zm-6.28-10.3l.14 1.82.43 1.76.7 1.67.3.5-.8.5-.35-.57-.75-1.8-.46-1.9-.15-1.94V622h.94zm-1.36-41.64l.75 1.8.46 1.9.14 1.94V598h-.95v-5.98l-.15-1.82-.42-1.76-.7-1.67-.3-.5.8-.5zm-9.16-6.66l1.9.45 1.8.75.58.35-.5.8-.5-.3-1.67-.7-1.76-.4-1.82-.15h-5.3v-.96h5.33zm-12.6.8H703.5v-.96h10.63zm-15.96 0h-10.64v-.96h10.64zm-15.96 0h-5.32v-.96h5.32z" stroke="#333" stroke-width=".05" fill="#333"/><path d="M813.03 640v.4l-.5.08v-.96h.5z" fill="#333"/><path stroke="#333" stroke-width=".05" fill="#333"/><path d="M676.38 584.63L662.12 580l14.26-4.63z" fill="#333"/><path d="M676.86 585.3l-16.28-5.3 16.28-5.3zm-13.2-5.3l12.25 3.98v-7.96z" stroke="#333" stroke-width=".05" fill="#333"/><use xlink:href="#C" transform="matrix(1,0,0,1,697.5920480827587,601.93359375) translate(0.005000000000002558 12.916666666666668)"/><path d="M1111.53 400c0 33.14-35.82 60-80 60s-80-26.86-80-60 35.82-60 80-60 80 26.86 80 60z" stroke="#fff" fill="#3278cc"/><use xlink:href="#D" transform="matrix(1,0,0,1,975.530450332184,363.99896332548343) translate(12.264973958333321 32.01197916666666)"/><use xlink:href="#E" transform="matrix(1,0,0,1,975.530450332184,363.99896332548343) translate(89.58736979166667 32.01197916666666)"/><use xlink:href="#F" transform="matrix(1,0,0,1,975.530450332184,363.99896332548343) translate(32.782291666666666 52.016666666666666)"/><path d="M779.38 400.47h-4.85v-.95h4.85zm14.56 0h-9.7v-.95h9.7zm14.55 0h-9.7v-.95h9.7zm13.5 0h-8.65v-.95H822zm102.94 0h-9.7v-.95h9.7zm9.7 0h-4.85v-.95h4.85zm-24.25 0h-7.34v-.95h7.33z" stroke="#333" stroke-width=".05" fill="#333"/><path d="M774.54 400.47h-.52V399.6l.52-.08z" fill="#333"/><path stroke="#333" stroke-width=".05" fill="#333"/><path d="M949.4 400l-14.25 4.63v-9.27z" fill="#333"/><path d="M950.95 400l-16.28 5.3v-10.6zm-15.33 3.98l12.25-3.98-12.25-3.98z" stroke="#333" stroke-width=".05" fill="#333"/><g><use xlink:href="#u" transform="matrix(1,0,0,1,821.9998513738507,391.93255707548343) translate(0.005000000000002558 12.916666666666668)"/></g><path d="M1111.53 540c0 33.14-35.82 60-80 60s-80-26.86-80-60 35.82-60 80-60 80 26.86 80 60z" stroke="#fff" fill="#3278cc"/><g><use xlink:href="#G" transform="matrix(1,0,0,1,975.530450332184,504) translate(12.264973958333321 32.01197916666666)"/><use xlink:href="#H" transform="matrix(1,0,0,1,975.530450332184,504) translate(89.58736979166667 32.01197916666666)"/><use xlink:href="#I" transform="matrix(1,0,0,1,975.530450332184,504) translate(30.303906249999997 52.016666666666666)"/></g><path d="M869.3 538.27l1.67.7 1.76.4 1.82.15h5v.96h-5.04l-1.92-.16-1.9-.45-1.8-.75-.58-.35.5-.8zm25.27 2.2h-10.02v-.95h10.02zm15.03 0h-10.02v-.95h10.02zm15.03 0H914.6v-.95h10.03zm10.02 0h-5v-.95h5zM863 527.98l.15 1.83.42 1.76.7 1.67.3.5-.8.5-.36-.57-.74-1.8-.45-1.9-.15-1.94v-4.85h.96zm0-9.64h-.95v-9.66h.96zm0-14.5h-.95v-9.66h.96zm0-14.5h-.95v-9.66h.96zm0-29h-.95v-9.66h.96zm0-14.5h-.95v-9.66h.96zm0-14.5h-.95v-9.66h.96zm-.6-23.2l.45 1.92.15 1.93v4.85h-.95v-4.8l-.14-1.83-.4-1.76-.16-.38h1.02zm-82.8-7.66h-5.07v-.95h5.07zm15.2 0h-10.14v-.95h10.14zm15.2 0h-10.14v-.95H810zm12 0h-6.94v-.95H822z" stroke="#333" stroke-width=".05" fill="#333"/><path d="M774.54 400.47h-.52V399.6l.52-.08z" fill="#333"/><path stroke="#333" stroke-width=".05" fill="#333"/><path d="M949.4 540l-14.25 4.63v-9.26z" fill="#333"/><path d="M950.95 540l-16.28 5.3v-10.6zm-15.33 3.98l12.25-3.98-12.25-3.98z" stroke="#333" stroke-width=".05" fill="#333"/><g><use xlink:href="#u" transform="matrix(1,0,0,1,821.9998513738507,461.9330754127418) translate(0.005000000000002558 12.916666666666668)"/></g><path d="M624.83 490.47h-32.8l-1.83.15-1.76.42-1.67.7-1.54.94-1.38 1.17-1.17 1.38-.95 1.54-.7 1.67-.4 1.76-.15 1.82v1.1h-.96v-1.14l.16-1.93.45-1.9.75-1.8 1.03-1.68 1.28-1.5 1.5-1.26 1.66-1.02 1.8-.75 1.9-.45 1.94-.16h32.85zM694 478.02l-.15 1.93-.45 1.9-.04.08h-1.02l.15-.37.4-1.76.15-1.82V461h.96z" stroke="#333" stroke-width=".05" fill="#333"/><path d="M693.52 460.5h.5v.5h-.97v-.52z" fill="#333"/><path stroke="#333" stroke-width=".05" fill="#333"/><path d="M580 517.88l-4.63-14.26h9.26z" fill="#333"/><path d="M580 519.42l-5.3-16.28h10.6zm-3.98-15.33l3.98 12.25 3.98-12.26z" stroke="#333" stroke-width=".05" fill="#333"/><g><use xlink:href="#C" transform="matrix(1,0,0,1,624.8268229166666,481.93307541274174) translate(0.005000000000002558 12.916666666666668)"/></g><defs><path fill="#333" d="M716 20c-372 0-603-230-603-607 0-487 323-923 817-923 330 0 576 197 568 500h-310c-18-142-108-229-266-229-321 0-502 333-502 645 0 223 116 343 310 343 217 0 373-125 412-311H819l38-232h620l-32 196c-65 390-362 618-729 618" id="J"/><path fill="#333" d="M441 19C184 19 19-186 81-558c63-382 303-574 550-574 189 0 259 113 285 202h10l31-188h299L1071 0H776l29-179h-14C733-87 623 19 441 19zm133-241c154 0 263-135 296-336 34-204-31-334-185-334-159 0-264 139-296 334-33 197 29 336 185 336" id="K"/><path fill="#333" d="M35 0l186-1118h278l-23 203c87-158 215-220 340-220 150 0 232 87 258 250 89-176 240-250 390-250 212 0 348 148 307 391L1648 0h-301l118-707c21-127-40-177-131-177-124 0-216 90-235 206L986 0H696l119-715c18-110-37-169-130-169-113 0-217 83-240 218L335 0H35" id="L"/><path fill="#333" d="M552 24C254 24 71-146 71-432c0-377 264-705 643-705 236 0 413 123 413 326 0 251-270 329-766 342-10 155 35 265 213 267 113 0 207-50 245-134l269 36C1015-105 814 24 552 24zM392-650c368-7 456-43 456-146 0-71-63-115-165-115-165 0-251 126-291 261" id="M"/><g id="a"><use transform="matrix(0.010091145833333334,0,0,0.010091145833333334,0,0)" xlink:href="#J"/><use transform="matrix(0.010091145833333334,0,0,0.010091145833333334,15.510091145833334,0)" xlink:href="#K"/><use transform="matrix(0.010091145833333334,0,0,0.010091145833333334,28.5478515625,0)" xlink:href="#L"/><use transform="matrix(0.010091145833333334,0,0,0.010091145833333334,47.408203125,0)" xlink:href="#M"/></g><path fill="#333" d="M87 0l247-1490h510c346 0 473 206 430 472s-238 479-586 479H366L277 0H87zm307-706h312c241 0 351-138 379-311s-39-306-279-306H496" id="N"/><path fill="#333" d="M492-1490L245 0H65l247-1490h180" id="O"/><path fill="#333" d="M481 24C202 24 45-202 104-557s293-575 571-575c216 0 263 132 291 193h15l29-179h181L1006 0H831l28-173h-21C788-107 693 24 481 24zm56-161c204 0 342-174 383-422s-41-412-245-412c-215 0-350 183-388 412-39 235 39 422 250 422" id="P"/><path fill="#333" d="M-19 405l72-156c121 32 203 15 288-150l47-93-241-1124h188c55 313 135 616 167 950 142-329 324-636 483-950h205L486 167c-97 177-219 259-378 259-59 0-109-11-127-21" id="Q"/><path fill="#333" d="M535 24C259 24 94-144 94-427c0-392 272-715 610-715 216 0 356 119 356 305 0 244-237 344-790 350-18 199 49 349 276 352 142 0 260-66 317-173l167 47C947-85 756 24 535 24zM294-623c447-4 586-57 586-218 0-85-78-141-194-141-220 0-342 177-392 359" id="R"/><path fill="#333" d="M66 0l185-1118h174l-28 172h12c78-136 219-209 411-185l-30 181c-211-47-398 67-428 250L246 0H66" id="S"/><g id="b"><use transform="matrix(0.008072916666666667,0,0,0.008072916666666667,0,0)" xlink:href="#N"/><use transform="matrix(0.008072916666666667,0,0,0.008072916666666667,10.559375000000001,0)" xlink:href="#O"/><use transform="matrix(0.008072916666666667,0,0,0.008072916666666667,14.56354166666667,0)" xlink:href="#P"/><use transform="matrix(0.008072916666666667,0,0,0.008072916666666667,24.46901041666667,0)" xlink:href="#Q"/><use transform="matrix(0.008072916666666667,0,0,0.008072916666666667,33.43802083333334,0)" xlink:href="#R"/><use transform="matrix(0.008072916666666667,0,0,0.008072916666666667,42.95598958333335,0)" xlink:href="#S"/></g><path fill="#fff" d="M87 0l247-1490h908l-28 167H496l-80 487h669l-28 167H387l-83 502h727L1004 0H87" id="T"/><path fill="#fff" d="M356-664L245 0H65l186-1118h173l-32 197c96-152 219-211 366-211 232 0 366 145 319 428L960 0H779l117-701c29-174-48-269-198-269-165 0-310 115-342 306" id="U"/><path fill="#fff" d="M691-1118l-25 154H437L325-290c-17 103 16 144 108 144 23 0 63-6 94-12L538-6c-36 12-87 20-136 20-196 0-290-109-260-290l114-688H88l25-154h169l44-266h180l-44 266h229" id="V"/><path fill="#fff" d="M66 0l185-1118h174l-28 172h12c78-136 219-209 411-185l-30 181c-211-47-398 67-428 250L246 0H66" id="W"/><path fill="#fff" d="M481 24C202 24 45-202 104-557s293-575 571-575c216 0 263 132 291 193h15l29-179h181L1006 0H831l28-173h-21C788-107 693 24 481 24zm56-161c204 0 342-174 383-422s-41-412-245-412c-215 0-350 183-388 412-39 235 39 422 250 422" id="X"/><g id="c"><use transform="matrix(0.008072916666666667,0,0,0.008072916666666667,0,0)" xlink:href="#T"/><use transform="matrix(0.008072916666666667,0,0,0.008072916666666667,9.945833333333335,0)" xlink:href="#U"/><use transform="matrix(0.008072916666666667,0,0,0.008072916666666667,19.722135416666667,0)" xlink:href="#V"/><use transform="matrix(0.008072916666666667,0,0,0.008072916666666667,25.147135416666668,0)" xlink:href="#W"/><use transform="matrix(0.008072916666666667,0,0,0.008072916666666667,31.10494791666667,0)" xlink:href="#X"/><use transform="matrix(0.008072916666666667,0,0,0.008072916666666667,41.25260416666667,0)" xlink:href="#W"/></g><path fill="#fff" d="M226-1323l28-167h1126l-28 167H885L666 0H476l219-1323H226" id="Y"/><path fill="#fff" d="M443 14C219 14 87-123 134-408l117-710h180L317-423c-28 171 49 275 206 275s300-105 332-300l110-670h181L961 0H787l35-209C722-47 590 14 443 14" id="Z"/><path fill="#fff" d="M528 24C258 24 94-156 94-433c0-355 229-699 603-699 270 0 436 178 436 458 0 359-234 698-605 698zm4-161c275 0 420-287 420-533 0-170-77-301-260-301-271 0-418 288-418 536 0 168 77 298 258 298" id="aa"/><path fill="#fff" d="M66 0l185-1118h180L246 0H66zm307-1301c-71 0-117-55-106-119s74-119 145-119c65 0 117 50 106 118s-78 120-145 120" id="ab"/><path fill="#fff" d="M492-1490L245 0H65l247-1490h180" id="ac"/><g id="d"><use transform="matrix(0.008072916666666667,0,0,0.008072916666666667,0,0)" xlink:href="#Y"/><use transform="matrix(0.008072916666666667,0,0,0.008072916666666667,9.469531250000001,0)" xlink:href="#Z"/><use transform="matrix(0.008072916666666667,0,0,0.008072916666666667,19.25390625,0)" xlink:href="#V"/><use transform="matrix(0.008072916666666667,0,0,0.008072916666666667,24.51744791666667,0)" xlink:href="#aa"/><use transform="matrix(0.008072916666666667,0,0,0.008072916666666667,34.439062500000006,0)" xlink:href="#W"/><use transform="matrix(0.008072916666666667,0,0,0.008072916666666667,40.92968750000001,0)" xlink:href="#ab"/><use transform="matrix(0.008072916666666667,0,0,0.008072916666666667,44.94192708333334,0)" xlink:href="#X"/><use transform="matrix(0.008072916666666667,0,0,0.008072916666666667,55.08958333333334,0)" xlink:href="#ac"/></g><path fill="#a9afb8" d="M659 0H135v-1490h529c448 0 721 280 721 744 0 466-273 746-726 746zM440-263h204c287 0 437-148 437-483 0-333-150-481-435-481H440v964" id="ad"/><path fill="#a9afb8" d="M128 0v-1118h300V0H128zm150-1264c-91 0-165-68-165-154 0-85 74-154 165-154 90 0 165 69 165 154 0 86-75 154-165 154" id="ae"/><path fill="#a9afb8" d="M440 22C227 22 68-92 68-313c0-250 202-322 422-343 195-21 271-24 271-105 0-95-63-149-175-149-116 0-187 57-211 129l-275-46c57-194 237-305 487-305 240 0 474 108 474 379V0H777v-155h-10C713-51 605 22 440 22zm85-211c140 0 238-93 238-211v-121c-37 26-156 42-222 51-111 16-185 59-185 149 0 87 70 132 169 132" id="af"/><path fill="#a9afb8" d="M625 442c-280 0-454-114-503-274l258-72c28 63 97 128 243 128 153 0 246-69 246-216v-206h-23C805-108 717-16 536-16 284-16 81-191 81-561c0-378 208-571 456-571 188 0 280 113 321 202h13v-188h295V-9c0 303-226 451-541 451zm5-686c153 0 240-119 240-319 0-198-86-329-240-329-158 0-241 137-241 329 0 195 85 319 241 319" id="ag"/><path fill="#a9afb8" d="M128 0v-1118h290v195h12c54-169 184-238 367-200v268c-27-8-86-15-130-15-138 0-239 95-239 234V0H128" id="ah"/><path fill="#a9afb8" d="M128 0v-1118h278l12 217c60-163 185-234 319-234 143 0 236 81 288 251 63-172 205-251 359-251 205 0 357 138 357 381V0h-301v-697c0-126-76-187-177-187-114 0-184 79-184 196V0H789v-705c0-109-72-179-174-179-106 0-187 74-187 208V0H128" id="ai"/><g id="e"><use transform="matrix(0.011907552083333333,0,0,0.011907552083333333,0,0)" xlink:href="#ad"/><use transform="matrix(0.011907552083333333,0,0,0.011907552083333333,17.61126953125,0)" xlink:href="#ae"/><use transform="matrix(0.011907552083333333,0,0,0.011907552083333333,24.219960937499998,0)" xlink:href="#af"/><use transform="matrix(0.011907552083333333,0,0,0.011907552083333333,38.37804036458333,0)" xlink:href="#ag"/><use transform="matrix(0.011907552083333333,0,0,0.011907552083333333,53.78641276041665,0)" xlink:href="#ah"/><use transform="matrix(0.011907552083333333,0,0,0.011907552083333333,63.38389973958332,0)" xlink:href="#af"/><use transform="matrix(0.011907552083333333,0,0,0.011907552083333333,77.54197916666666,0)" xlink:href="#ai"/><use transform="matrix(0.011907552083333333,0,0,0.011907552083333333,99.79719401041666,0)" xlink:href="#af"/></g><path fill="#a9afb8" d="M537 19C279 19 81-185 81-557c0-382 206-575 454-575 190 0 278 113 318 202h10v-560h300V0H868v-179h-15C812-89 719 19 537 19zm92-241c153 0 240-134 240-336 0-203-86-334-240-334-158 0-240 138-240 334 0 197 84 336 240 336" id="aj"/><path fill="#a9afb8" d="M633 22C291 22 81-200 81-553c0-345 210-579 537-579 292 0 525 185 525 567v84H378c7 183 109 277 260 277 105 0 184-46 216-132l272 51C1071-99 893 22 633 22zM380-669h474c-15-146-94-237-233-237-143 0-229 99-241 237" id="ak"/><g id="f"><use transform="matrix(0.011907552083333333,0,0,0.011907552083333333,0,0)" xlink:href="#aj"/><use transform="matrix(0.011907552083333333,0,0,0.011907552083333333,15.372649739583334,0)" xlink:href="#ak"/></g><path fill="#a9afb8" d="M628 22C291 22 81-210 81-554c0-346 210-578 547-578 265 0 455 142 497 372l-279 52c-25-116-99-188-215-188-160 0-244 139-244 341 0 200 84 341 244 341 116 0 193-74 217-195l279 51C1085-123 896 22 628 22" id="al"/><path fill="#a9afb8" d="M572 22C302 22 117-98 78-306l279-48c29 105 101 156 224 156 114 0 185-48 185-115 0-118-228-130-337-155-215-49-322-150-322-317 0-215 187-347 470-347 265 0 424 116 466 298l-266 47c-24-76-87-130-196-130-98 0-174 46-174 113 0 56 38 95 144 117l201 40c216 44 320 143 320 302 0 220-207 367-500 367" id="am"/><path fill="#a9afb8" d="M628 22C291 22 81-210 81-554c0-346 210-578 547-578 336 0 547 232 547 578 0 344-211 576-547 576zm0-236c160 0 242-146 242-341 0-197-82-341-242-341S387-753 387-555c0 195 81 341 241 341" id="an"/><g id="g"><use transform="matrix(0.011907552083333333,0,0,0.011907552083333333,0,0)" xlink:href="#al"/><use transform="matrix(0.011907552083333333,0,0,0.011907552083333333,14.586751302083334,0)" xlink:href="#af"/><use transform="matrix(0.011907552083333333,0,0,0.011907552083333333,28.744830729166665,0)" xlink:href="#am"/><use transform="matrix(0.011907552083333333,0,0,0.011907552083333333,42.40279296875,0)" xlink:href="#an"/></g><g id="h"><use transform="matrix(0.011907552083333333,0,0,0.011907552083333333,0,0)" xlink:href="#aj"/><use transform="matrix(0.011907552083333333,0,0,0.011907552083333333,15.372649739583334,0)" xlink:href="#ak"/></g><path fill="#a9afb8" d="M513 14c-232 0-385-159-385-421v-711h300v659c0 139 76 222 202 222 127 0 217-86 217-234v-647h301V0H864l-4-232C797-74 683 14 513 14" id="ao"/><g id="i"><use transform="matrix(0.011907552083333333,0,0,0.011907552083333333,0,0)" xlink:href="#ao"/><use transform="matrix(0.011907552083333333,0,0,0.011907552083333333,15.18212890625,0)" xlink:href="#am"/><use transform="matrix(0.011907552083333333,0,0,0.011907552083333333,28.840091145833334,0)" xlink:href="#an"/></g><path fill="#a9afb8" d="M545 20c-263 0-445-160-445-446v-80h190v80c0 182 102 279 255 279 152 0 254-97 254-279v-1064h190v1064c0 286-181 446-444 446" id="ap"/><path fill="#a9afb8" d="M613 24c-304 0-509-231-509-576 0-350 205-580 509-580 305 0 511 230 511 580 0 345-206 576-511 576zm0-161c226 0 329-195 329-415 0-222-103-419-329-419-223 0-326 196-326 419 0 220 103 415 326 415" id="aq"/><path fill="#a9afb8" d="M338-670V0H158v-1490h180v566c73-149 190-208 336-208 226 0 379 139 379 422V0H872v-695c0-172-96-275-252-275-161 0-282 109-282 300" id="ar"/><path fill="#a9afb8" d="M471 26C259 26 90-98 90-318c0-256 228-303 435-329 202-27 287-16 287-108 0-139-79-219-234-219-161 0-248 86-283 164l-173-57c86-203 278-265 451-265 150 0 419 46 419 395V0H815v-152h-12C765-73 660 26 471 26zm31-159c199 0 310-134 310-271v-155c-30 35-226 55-295 64-131 17-246 59-246 186 0 116 97 176 231 176" id="as"/><path fill="#a9afb8" d="M338-670V0H158v-1118h173l1 207c72-158 192-221 342-221 226 0 378 139 378 422V0H872v-695c0-172-96-275-252-275-161 0-282 109-282 300" id="at"/><g id="j"><use transform="matrix(0.006946072048611111,0,0,0.006946072048611111,0,0)" xlink:href="#ap"/><use transform="matrix(0.006946072048611111,0,0,0.006946072048611111,8.119958224826389,0)" xlink:href="#aq"/><use transform="matrix(0.006946072048611111,0,0,0.006946072048611111,16.64973470052083,0)" xlink:href="#ar"/><use transform="matrix(0.006946072048611111,0,0,0.006946072048611111,25.061427951388886,0)" xlink:href="#as"/><use transform="matrix(0.006946072048611111,0,0,0.006946072048611111,33.049410807291665,0)" xlink:href="#at"/></g><path fill="#a9afb8" d="M784 20c-382 0-662-292-662-764 0-473 280-766 662-766s660 293 660 766c0 282-99 499-260 629l192 255h-198L1049-33C969 2 880 20 784 20zm-62-486h198l156 205c112-98 183-261 183-483 0-383-209-590-475-590-268 0-477 208-477 590 0 380 209 588 477 588 54 0 106-9 154-25" id="au"/><path fill="#a9afb8" d="M537 14c-226 0-379-139-379-422v-710h180v695c0 172 97 275 253 275 160 0 281-109 281-300v-670h181V0H879v-209C806-46 684 14 537 14" id="av"/><path fill="#a9afb8" d="M628 24c-324 0-524-230-524-574 0-343 198-582 503-582 237 0 487 146 487 559v75H286c9 234 145 362 343 362 132 0 231-58 273-172l174 48C1024-91 857 24 628 24zM287-650h624c-17-190-120-322-304-322-192 0-309 151-320 322" id="aw"/><path fill="#a9afb8" d="M158 0v-1118h180V0H158zm91-1301c-68 0-125-53-125-119s57-119 125-119c69 0 126 53 126 119s-57 119-126 119" id="ax"/><path fill="#a9afb8" d="M158 0v-1118h174v172h12c41-113 157-188 290-188 26 0 70 2 91 3v181c-11-2-60-10-108-10-161 0-279 109-279 260V0H158" id="ay"/><path fill="#a9afb8" d="M126 0v-134l627-806v-11H146v-167h839v143L376-178v11h629V0H126" id="az"/><g id="k"><use transform="matrix(0.006946072048611111,0,0,0.006946072048611111,0,0)" xlink:href="#au"/><use transform="matrix(0.006946072048611111,0,0,0.006946072048611111,10.877548828125,0)" xlink:href="#av"/><use transform="matrix(0.006946072048611111,0,0,0.006946072048611111,19.289242078993055,0)" xlink:href="#aw"/><use transform="matrix(0.006946072048611111,0,0,0.006946072048611111,27.58285210503472,0)" xlink:href="#ax"/><use transform="matrix(0.006946072048611111,0,0,0.006946072048611111,31.028103841145832,0)" xlink:href="#ay"/><use transform="matrix(0.006946072048611111,0,0,0.006946072048611111,36.14735894097222,0)" xlink:href="#aq"/><use transform="matrix(0.006946072048611111,0,0,0.006946072048611111,44.46875325520833,0)" xlink:href="#az"/></g><path fill="#a9afb8" d="M419-1970V480H262v-2450h157" id="aA"/><use transform="matrix(0.006946072048611111,0,0,0.006946072048611111,0,0)" xlink:href="#aA" id="l"/><path fill="#a9afb8" d="M657 26c-323 0-524-166-541-416h195c15 169 171 246 346 246 202 0 356-106 356-265 5-203-294-238-475-293-239-73-380-191-380-389 0-252 224-419 512-419 294 0 499 171 508 396H992c-17-145-151-228-328-228-193 0-321 102-321 242 0 156 175 211 284 241l149 41c160 44 422 134 422 412 0 244-197 432-541 432" id="aB"/><path fill="#a9afb8" d="M158 418v-1536h174v179h20c37-59 106-193 324-193 279 0 474 222 474 576 0 356-194 580-473 580-213 0-288-135-325-197h-14v591H158zm492-555c209 0 317-186 317-421 0-232-105-413-317-413-206 0-314 166-314 413 0 249 111 421 314 421" id="aC"/><path fill="#a9afb8" d="M598-1118v154H368v674c0 100 37 144 132 144 23 0 62-6 92-12L629-6c-37 13-88 20-134 20-193 0-307-107-307-290v-688H20v-154h168v-266h180v266h230" id="aD"/><path fill="#a9afb8" d="M158 0v-1118h175l1 205c55-151 181-225 313-225 147 0 245 90 285 228 53-141 190-228 352-228 194 0 352 125 352 384V0h-181v-749c0-161-105-225-225-225-151 0-243 103-243 244V0H807v-767c0-124-93-207-219-207-131 0-250 92-250 270V0H158" id="aE"/><path fill="#a9afb8" d="M677 24c-213 0-288-135-325-197h-20V0H158v-1490h180v551h14c37-59 106-193 324-193 279 0 474 222 474 576 0 356-194 580-473 580zm-27-161c209 0 317-186 317-421 0-232-105-413-317-413-206 0-314 166-314 413 0 249 111 421 314 421" id="aF"/><g id="m"><use transform="matrix(0.006946072048611111,0,0,0.006946072048611111,0,0)" xlink:href="#aB"/><use transform="matrix(0.006946072048611111,0,0,0.006946072048611111,9.127138671875,0)" xlink:href="#aw"/><use transform="matrix(0.006946072048611111,0,0,0.006946072048611111,17.420748697916665,0)" xlink:href="#aC"/><use transform="matrix(0.006946072048611111,0,0,0.006946072048611111,26.131123046874997,0)" xlink:href="#aD"/><use transform="matrix(0.006946072048611111,0,0,0.006946072048611111,30.646069878472215,0)" xlink:href="#aw"/><use transform="matrix(0.006946072048611111,0,0,0.006946072048611111,38.93967990451388,0)" xlink:href="#aE"/><use transform="matrix(0.006946072048611111,0,0,0.006946072048611111,51.400933159722214,0)" xlink:href="#aF"/><use transform="matrix(0.006946072048611111,0,0,0.006946072048611111,60.11130750868054,0)" xlink:href="#aw"/><use transform="matrix(0.006946072048611111,0,0,0.006946072048611111,68.40491753472222,0)" xlink:href="#ay"/></g><path fill="#a9afb8" d="M154 0v-137l495-537c165-179 249-281 249-418 0-156-121-253-280-253-170 0-278 110-278 278H158c0-264 200-443 465-443 266 0 455 183 455 416 0 161-73 288-336 568L416-179v12h687V0H154" id="aG"/><path fill="#a9afb8" d="M626 20c-262 0-458-168-468-396h184c12 133 134 229 284 229 180 0 311-137 311-326 0-192-136-335-323-335-92 0-196 33-255 78l-178-22 88-738h784v167H429l-51 435h8c61-51 160-87 263-87 273 0 474 211 474 499 0 286-210 496-497 496" id="aH"/><path fill="#a9afb8" d="M128 359l88-567h206L266 359H128" id="aI"/><g id="n"><use transform="matrix(0.006946072048611111,0,0,0.006946072048611111,0,0)" xlink:href="#aG"/><use transform="matrix(0.006946072048611111,0,0,0.006946072048611111,8.675643988715278,0)" xlink:href="#aH"/><use transform="matrix(0.006946072048611111,0,0,0.006946072048611111,17.323503689236112,0)" xlink:href="#aI"/></g><path fill="#a9afb8" d="M646 20c-332 0-524-278-524-764 0-483 194-766 524-766s524 283 524 766c0 485-191 764-524 764zm0-166c218 0 341-220 341-598 0-380-123-601-341-601s-341 222-341 601c0 378 123 598 341 598" id="aJ"/><g id="o"><use transform="matrix(0.006946072048611111,0,0,0.006946072048611111,0,0)" xlink:href="#aG"/><use transform="matrix(0.006946072048611111,0,0,0.006946072048611111,8.675643988715278,0)" xlink:href="#aJ"/><use transform="matrix(0.006946072048611111,0,0,0.006946072048611111,17.649969075520833,0)" xlink:href="#aG"/><use transform="matrix(0.006946072048611111,0,0,0.006946072048611111,26.32561306423611,0)" xlink:href="#aH"/></g><path fill="#fff" d="M524-1490L277 0H87l247-1490h190" id="aK"/><path fill="#fff" d="M535 24C259 24 94-144 94-427c0-392 272-715 610-715 216 0 356 119 356 305 0 244-237 344-790 350-18 199 49 349 276 352 142 0 260-66 317-173l167 47C947-85 756 24 535 24zM294-623c447-4 586-57 586-218 0-85-78-141-194-141-220 0-342 177-392 359" id="aL"/><path fill="#fff" d="M250-1118h181L232 80C195 303 57 429-187 418l27-166c128 9 191-48 212-172zm122-183c-71 0-117-55-106-119s74-119 145-119c65 0 117 50 106 118s-78 120-145 120" id="aM"/><g id="p"><use transform="matrix(0.008072916666666667,0,0,0.008072916666666667,0,0)" xlink:href="#aK"/><use transform="matrix(0.008072916666666667,0,0,0.008072916666666667,4.440104166666667,0)" xlink:href="#U"/><use transform="matrix(0.008072916666666667,0,0,0.008072916666666667,14.216406250000002,0)" xlink:href="#V"/><use transform="matrix(0.008072916666666667,0,0,0.008072916666666667,19.479947916666667,0)" xlink:href="#aL"/><use transform="matrix(0.008072916666666667,0,0,0.008072916666666667,28.99791666666667,0)" xlink:href="#W"/><use transform="matrix(0.008072916666666667,0,0,0.008072916666666667,34.95572916666667,0)" xlink:href="#X"/><use transform="matrix(0.008072916666666667,0,0,0.008072916666666667,45.10338541666667,0)" xlink:href="#aM"/><use transform="matrix(0.008072916666666667,0,0,0.008072916666666667,49.10755208333334,0)" xlink:href="#ab"/><use transform="matrix(0.008072916666666667,0,0,0.008072916666666667,53.11979166666667,0)" xlink:href="#W"/></g><path fill="#fff" d="M528 24C258 24 94-156 94-433c0-354 228-699 603-699 222 0 381 120 410 314l-176 39c-14-114-95-192-238-192-272 0-419 288-419 536 0 167 76 298 258 298 155 0 277-90 329-211l166 58C935-93 745 24 528 24" id="aN"/><path fill="#fff" d="M65 0l186-1118h175l-31 195c80-148 212-215 337-215 153 0 236 96 255 228 75-143 223-228 382-228 199 0 341 131 298 390L1543 0h-181l126-756c27-162-65-218-177-218-160 0-274 111-297 250L894 0H714l128-773c21-127-57-201-174-201-136 0-277 97-307 277L245 0H65" id="aO"/><g id="q"><use transform="matrix(0.008072916666666667,0,0,0.008072916666666667,0,0)" xlink:href="#aN"/><use transform="matrix(0.008072916666666667,0,0,0.008072916666666667,9.453385416666668,0)" xlink:href="#aa"/><use transform="matrix(0.008072916666666667,0,0,0.008072916666666667,19.375,0)" xlink:href="#aO"/></g><path fill="#fff" d="M87 0l247-1490h218l448 953c25 54 80 176 129 327 11-149 33-280 47-366l151-914h190L1270 0h-219C841-464 670-765 473-1275 414-753 352-475 278 0H87" id="aP"/><path fill="#fff" d="M87 0l247-1490h510c346 0 473 206 430 472s-238 479-586 479H366L277 0H87zm307-706h312c241 0 351-138 379-311s-39-306-279-306H496" id="aQ"/><path fill="#fff" d="M698 20c-339 0-559-226-559-600 0-470 305-930 790-930 306 0 529 181 531 489h-190c-8-202-157-313-348-313-373 0-599 380-599 749 0 281 158 429 382 429 202 0 399-111 474-313h191C1267-166 997 20 698 20" id="aR"/><g id="r"><use transform="matrix(0.008072916666666667,0,0,0.008072916666666667,0,0)" xlink:href="#aP"/><use transform="matrix(0.008072916666666667,0,0,0.008072916666666667,12.456510416666667,0)" xlink:href="#aQ"/><use transform="matrix(0.008072916666666667,0,0,0.008072916666666667,23.01588541666667,0)" xlink:href="#aR"/></g><g id="s"><use transform="matrix(0.008072916666666667,0,0,0.008072916666666667,0,0)" xlink:href="#aR"/><use transform="matrix(0.008072916666666667,0,0,0.008072916666666667,12.069010416666668,0)" xlink:href="#aa"/><use transform="matrix(0.008072916666666667,0,0,0.008072916666666667,21.990625,0)" xlink:href="#ac"/><use transform="matrix(0.008072916666666667,0,0,0.008072916666666667,25.994791666666668,0)" xlink:href="#aL"/><use transform="matrix(0.008072916666666667,0,0,0.008072916666666667,35.512760416666666,0)" xlink:href="#V"/><use transform="matrix(0.008072916666666667,0,0,0.008072916666666667,40.776302083333334,0)" xlink:href="#X"/><use transform="matrix(0.008072916666666667,0,0,0.008072916666666667,50.92395833333333,0)" xlink:href="#W"/></g><path fill="#fff" d="M451 24C217 22 71-78 61-277l174-29c11 123 90 172 219 172 161 0 280-83 297-181 11-71-30-117-135-143l-179-44c-195-48-280-153-253-316 31-186 223-314 455-314 233 4 337 107 366 275l-165 30c-18-80-65-152-204-152-138 0-256 75-272 174-13 77 32 118 158 149l162 40c195 48 278 154 252 313C904-113 708 24 451 24" id="aS"/><g id="t"><use transform="matrix(0.008072916666666667,0,0,0.008072916666666667,0,0)" xlink:href="#ab"/><use transform="matrix(0.008072916666666667,0,0,0.008072916666666667,4.012239583333334,0)" xlink:href="#V"/><use transform="matrix(0.008072916666666667,0,0,0.008072916666666667,9.275781250000001,0)" xlink:href="#aL"/><use transform="matrix(0.008072916666666667,0,0,0.008072916666666667,18.793750000000003,0)" xlink:href="#U"/><use transform="matrix(0.008072916666666667,0,0,0.008072916666666667,28.570052083333337,0)" xlink:href="#aS"/></g><path d="M174-520v-126l944-476v196L406-588v12l712 338v194" id="aT"/><path d="M158 0v-1118h180V0H158zm91-1301c-68 0-125-53-125-119s57-119 125-119c69 0 126 53 126 119s-57 119-126 119" id="aU"/><path d="M338-670V0H158v-1118h173l1 207c72-158 192-221 342-221 226 0 378 139 378 422V0H872v-695c0-172-96-275-252-275-161 0-282 109-282 300" id="aV"/><path d="M613 24c-304 0-509-231-509-576 0-350 205-580 509-580 216 0 392 114 453 309l-173 49c-33-115-133-197-280-197-223 0-326 196-326 419 0 220 103 415 326 415 150 0 252-85 285-206l172 49C1010-95 832 24 613 24" id="aW"/><path d="M338-1490V0H158v-1490h180" id="aX"/><path d="M537 14c-226 0-379-139-379-422v-710h180v695c0 172 97 275 253 275 160 0 281-109 281-300v-670h181V0H879v-209C806-46 684 14 537 14" id="aY"/><path d="M577 24c-279 0-473-224-473-580 0-354 195-576 474-576 218 0 287 134 324 193h14v-551h180V0H922v-173h-20C865-111 790 24 577 24zm27-161c203 0 314-172 314-421 0-247-108-413-314-413-212 0-317 181-317 413 0 235 108 421 317 421" id="aZ"/><path d="M628 24c-324 0-524-230-524-574 0-343 198-582 503-582 237 0 487 146 487 559v75H286c9 234 145 362 343 362 132 0 231-58 273-172l174 48C1024-91 857 24 628 24zM287-650h624c-17-190-120-322-304-322-192 0-309 151-320 322" id="ba"/><path d="M1181-520L237-44v-194l712-338v-12L237-926v-196l944 476v126" id="bb"/><g id="u"><use transform="matrix(0.006510416666666667,0,0,0.006510416666666667,0,0)" xlink:href="#aT"/><use transform="matrix(0.006510416666666667,0,0,0.006510416666666667,8.821614583333334,0)" xlink:href="#aT"/><use transform="matrix(0.006510416666666667,0,0,0.006510416666666667,17.643229166666668,0)" xlink:href="#aU"/><use transform="matrix(0.006510416666666667,0,0,0.006510416666666667,20.872395833333336,0)" xlink:href="#aV"/><use transform="matrix(0.006510416666666667,0,0,0.006510416666666667,28.75,0)" xlink:href="#aW"/><use transform="matrix(0.006510416666666667,0,0,0.006510416666666667,36.3671875,0)" xlink:href="#aX"/><use transform="matrix(0.006510416666666667,0,0,0.006510416666666667,39.596354166666664,0)" xlink:href="#aY"/><use transform="matrix(0.006510416666666667,0,0,0.006510416666666667,47.48046875,0)" xlink:href="#aZ"/><use transform="matrix(0.006510416666666667,0,0,0.006510416666666667,55.64453125,0)" xlink:href="#ba"/><use transform="matrix(0.006510416666666667,0,0,0.006510416666666667,63.41796875,0)" xlink:href="#bb"/><use transform="matrix(0.006510416666666667,0,0,0.006510416666666667,72.23958333333333,0)" xlink:href="#bb"/></g><path fill="#fff" d="M87 0l247-1490h510c351 0 476 196 432 460-33 197-146 351-346 417L1163 0H943L728-579c-116 2-237 0-355 1L277 0H87zm314-747h311c238 0 346-110 375-283 31-185-52-293-281-293H496" id="bc"/><path fill="#fff" d="M592 24c-216 0-276-130-305-197h-18L239 0H65l247-1490h180l-92 551h15c51-63 134-193 344-193 246 0 401 170 401 447 0 348-211 709-568 709zm-24-161c267 0 411-296 411-543 0-170-78-291-250-291-269 0-405 284-405 542 0 177 81 292 244 292" id="bd"/><g id="v"><use transform="matrix(0.008072916666666667,0,0,0.008072916666666667,0,0)" xlink:href="#bc"/><use transform="matrix(0.008072916666666667,0,0,0.008072916666666667,10.397916666666667,0)" xlink:href="#aL"/><use transform="matrix(0.008072916666666667,0,0,0.008072916666666667,19.91588541666667,0)" xlink:href="#aN"/><use transform="matrix(0.008072916666666667,0,0,0.008072916666666667,29.36927083333334,0)" xlink:href="#aL"/><use transform="matrix(0.008072916666666667,0,0,0.008072916666666667,38.88723958333334,0)" xlink:href="#bd"/><use transform="matrix(0.008072916666666667,0,0,0.008072916666666667,49.01875000000001,0)" xlink:href="#aL"/><use transform="matrix(0.008072916666666667,0,0,0.008072916666666667,58.53671875000001,0)" xlink:href="#W"/></g><path fill="#fff" d="M481 24C202 24 45-202 104-557s293-575 571-575c216 0 263 132 291 193h15l29-179h181L1006 0H831l28-173h-21C788-107 693 24 481 24zm56-161c204 0 342-174 383-422s-41-412-245-412c-215 0-350 183-388 412-39 235 39 422 250 422zm347-1176c-99 0-179-83-229-83-37 0-59 42-67 79H462c25-123 92-208 197-208 104 0 160 85 227 85 34 0 53-25 69-81h123c-25 129-98 208-194 208" id="be"/><g id="w"><use transform="matrix(0.008072916666666667,0,0,0.008072916666666667,0,0)" xlink:href="#aO"/><use transform="matrix(0.008072916666666667,0,0,0.008072916666666667,14.482812500000001,0)" xlink:href="#ab"/><use transform="matrix(0.008072916666666667,0,0,0.008072916666666667,18.495052083333334,0)" xlink:href="#aS"/><use transform="matrix(0.008072916666666667,0,0,0.008072916666666667,27.213802083333338,0)" xlink:href="#aS"/><use transform="matrix(0.008072916666666667,0,0,0.008072916666666667,35.932552083333334,0)" xlink:href="#be"/><use transform="matrix(0.008072916666666667,0,0,0.008072916666666667,46.08020833333333,0)" xlink:href="#aa"/></g><path fill="#fff" d="M585 0H87l247-1490h460c436 0 670 281 593 744C1309-277 1035 0 585 0zM305-168h262c366 0 577-221 636-580s-82-574-426-574H496" id="bf"/><g id="x"><use transform="matrix(0.008072916666666667,0,0,0.008072916666666667,0,0)" xlink:href="#bf"/><use transform="matrix(0.008072916666666667,0,0,0.008072916666666667,11.923697916666669,0)" xlink:href="#aL"/><use transform="matrix(0.008072916666666667,0,0,0.008072916666666667,21.44166666666667,0)" xlink:href="#W"/><use transform="matrix(0.008072916666666667,0,0,0.008072916666666667,27.93229166666667,0)" xlink:href="#W"/><use transform="matrix(0.008072916666666667,0,0,0.008072916666666667,33.890104166666674,0)" xlink:href="#aa"/><use transform="matrix(0.008072916666666667,0,0,0.008072916666666667,43.81171875000001,0)" xlink:href="#V"/><use transform="matrix(0.008072916666666667,0,0,0.008072916666666667,49.07526041666668,0)" xlink:href="#X"/><use transform="matrix(0.008072916666666667,0,0,0.008072916666666667,59.22291666666668,0)" xlink:href="#W"/></g><path fill="#fff" d="M456 442C197 442 73 327 25 209l155-84c33 60 86 160 280 160 184 0 332-89 363-272l37-218-16 4C793-134 707-18 498-18 260-18 96-170 96-443c0-341 216-689 568-689 222 0 274 139 301 198l21-5 30-179h175L999 35c-48 288-275 407-543 407zm75-620c274 0 401-267 401-512 0-170-80-281-247-281-260 0-408 269-408 518 0 167 83 275 254 275" id="bg"/><g id="y"><use transform="matrix(0.008072916666666667,0,0,0.008072916666666667,0,0)" xlink:href="#ab"/><use transform="matrix(0.008072916666666667,0,0,0.008072916666666667,4.012239583333334,0)" xlink:href="#U"/><use transform="matrix(0.008072916666666667,0,0,0.008072916666666667,13.788541666666669,0)" xlink:href="#ab"/><use transform="matrix(0.008072916666666667,0,0,0.008072916666666667,17.800781250000004,0)" xlink:href="#aO"/><use transform="matrix(0.008072916666666667,0,0,0.008072916666666667,32.28359375,0)" xlink:href="#ab"/><use transform="matrix(0.008072916666666667,0,0,0.008072916666666667,36.295833333333334,0)" xlink:href="#bg"/><use transform="matrix(0.008072916666666667,0,0,0.008072916666666667,46.43541666666667,0)" xlink:href="#aa"/><use transform="matrix(0.008072916666666667,0,0,0.008072916666666667,56.357031250000006,0)" xlink:href="#aS"/></g><path fill="#fff" d="M-28 0l489-573-281-545h202c65 135 144 295 195 434 91-140 226-300 336-434h214L662-564 960 0H756c-70-143-156-309-211-458C447-309 301-142 185 0H-28" id="bh"/><path fill="#fff" d="M-4 418l255-1536h174l-30 179h9c47-68 143-193 355-193 246 0 401 170 401 447 0 348-211 709-568 709-219 0-274-140-300-202h-17l-99 596H-4zm572-555c267 0 411-296 411-543 0-170-78-291-250-291-269 0-405 284-405 542 0 177 81 292 244 292" id="bi"/><g id="z"><use transform="matrix(0.008072916666666667,0,0,0.008072916666666667,0,0)" xlink:href="#T"/><use transform="matrix(0.008072916666666667,0,0,0.008072916666666667,9.945833333333335,0)" xlink:href="#bh"/><use transform="matrix(0.008072916666666667,0,0,0.008072916666666667,18.97135416666667,0)" xlink:href="#bi"/><use transform="matrix(0.008072916666666667,0,0,0.008072916666666667,29.10286458333334,0)" xlink:href="#ac"/><use transform="matrix(0.008072916666666667,0,0,0.008072916666666667,33.107031250000006,0)" xlink:href="#aa"/><use transform="matrix(0.008072916666666667,0,0,0.008072916666666667,43.02864583333334,0)" xlink:href="#W"/><use transform="matrix(0.008072916666666667,0,0,0.008072916666666667,48.986458333333346,0)" xlink:href="#X"/><use transform="matrix(0.008072916666666667,0,0,0.008072916666666667,59.13411458333334,0)" xlink:href="#W"/></g><use transform="matrix(0.008072916666666667,0,0,0.008072916666666667,0,0)" xlink:href="#aa" id="A"/><g id="B"><use transform="matrix(0.008072916666666667,0,0,0.008072916666666667,0,0)" xlink:href="#aO"/><use transform="matrix(0.008072916666666667,0,0,0.008072916666666667,14.482812500000001,0)" xlink:href="#X"/><use transform="matrix(0.008072916666666667,0,0,0.008072916666666667,24.630468750000002,0)" xlink:href="#bi"/><use transform="matrix(0.008072916666666667,0,0,0.008072916666666667,34.76197916666667,0)" xlink:href="#X"/></g><path d="M65 0l393-574-370-544h210c88 136 192 297 267 435 67-142 176-302 264-435h206L661-564 1053 0H844c-94-144-206-310-287-458C484-308 366-142 273 0H65" id="bj"/><path d="M598-1118v154H368v674c0 100 37 144 132 144 23 0 62-6 92-12L629-6c-37 13-88 20-134 20-193 0-307-107-307-290v-688H20v-154h168v-266h180v266h230" id="bk"/><g id="C"><use transform="matrix(0.006510416666666667,0,0,0.006510416666666667,0,0)" xlink:href="#aT"/><use transform="matrix(0.006510416666666667,0,0,0.006510416666666667,8.821614583333334,0)" xlink:href="#aT"/><use transform="matrix(0.006510416666666667,0,0,0.006510416666666667,17.643229166666668,0)" xlink:href="#ba"/><use transform="matrix(0.006510416666666667,0,0,0.006510416666666667,25.1171875,0)" xlink:href="#bj"/><use transform="matrix(0.006510416666666667,0,0,0.006510416666666667,32.65625,0)" xlink:href="#bk"/><use transform="matrix(0.006510416666666667,0,0,0.006510416666666667,36.88802083333333,0)" xlink:href="#ba"/><use transform="matrix(0.006510416666666667,0,0,0.006510416666666667,44.66145833333333,0)" xlink:href="#aV"/><use transform="matrix(0.006510416666666667,0,0,0.006510416666666667,52.53906249999999,0)" xlink:href="#aZ"/><use transform="matrix(0.006510416666666667,0,0,0.006510416666666667,60.70312499999999,0)" xlink:href="#bb"/><use transform="matrix(0.006510416666666667,0,0,0.006510416666666667,69.52473958333333,0)" xlink:href="#bb"/></g><path fill="#fff" d="M-41 0l788-1490h220L1268 0h-192l-80-416H383L169 0H-41zm509-582h497c-56-293-77-375-126-756-162 359-224 468-371 756" id="bl"/><path fill="#fff" d="M492 24C248 24 94-147 94-425c0-352 212-707 569-707 222 0 274 136 303 198h12l92-556h181L1004 0H829l30-173h-19C792-103 700 24 492 24zm32-161c268 0 407-295 407-549 0-175-80-285-247-285-266 0-408 283-408 536 0 174 79 298 248 298" id="bm"/><g id="D"><use transform="matrix(0.008072916666666667,0,0,0.008072916666666667,0,0)" xlink:href="#bl"/><use transform="matrix(0.008072916666666667,0,0,0.008072916666666667,11.407031250000001,0)" xlink:href="#bi"/><use transform="matrix(0.008072916666666667,0,0,0.008072916666666667,21.538541666666667,0)" xlink:href="#W"/><use transform="matrix(0.008072916666666667,0,0,0.008072916666666667,27.49635416666667,0)" xlink:href="#aL"/><use transform="matrix(0.008072916666666667,0,0,0.008072916666666667,37.01432291666667,0)" xlink:href="#U"/><use transform="matrix(0.008072916666666667,0,0,0.008072916666666667,46.790625000000006,0)" xlink:href="#bm"/><use transform="matrix(0.008072916666666667,0,0,0.008072916666666667,56.92213541666668,0)" xlink:href="#aL"/><use transform="matrix(0.008072916666666667,0,0,0.008072916666666667,66.44010416666669,0)" xlink:href="#W"/></g><use transform="matrix(0.008072916666666667,0,0,0.008072916666666667,0,0)" xlink:href="#X" id="E"/><g id="F"><use transform="matrix(0.008072916666666667,0,0,0.008072916666666667,0,0)" xlink:href="#X"/><use transform="matrix(0.008072916666666667,0,0,0.008072916666666667,10.14765625,0)" xlink:href="#U"/><use transform="matrix(0.008072916666666667,0,0,0.008072916666666667,19.923958333333335,0)" xlink:href="#bm"/><use transform="matrix(0.008072916666666667,0,0,0.008072916666666667,30.055468750000003,0)" xlink:href="#X"/><use transform="matrix(0.008072916666666667,0,0,0.008072916666666667,40.203125,0)" xlink:href="#W"/></g><g id="G"><use transform="matrix(0.008072916666666667,0,0,0.008072916666666667,0,0)" xlink:href="#bl"/><use transform="matrix(0.008072916666666667,0,0,0.008072916666666667,11.407031250000001,0)" xlink:href="#bi"/><use transform="matrix(0.008072916666666667,0,0,0.008072916666666667,21.538541666666667,0)" xlink:href="#W"/><use transform="matrix(0.008072916666666667,0,0,0.008072916666666667,27.49635416666667,0)" xlink:href="#aL"/><use transform="matrix(0.008072916666666667,0,0,0.008072916666666667,37.01432291666667,0)" xlink:href="#U"/><use transform="matrix(0.008072916666666667,0,0,0.008072916666666667,46.790625000000006,0)" xlink:href="#bm"/><use transform="matrix(0.008072916666666667,0,0,0.008072916666666667,56.92213541666668,0)" xlink:href="#aL"/><use transform="matrix(0.008072916666666667,0,0,0.008072916666666667,66.44010416666669,0)" xlink:href="#W"/></g><use transform="matrix(0.008072916666666667,0,0,0.008072916666666667,0,0)" xlink:href="#X" id="H"/><g id="I"><use transform="matrix(0.008072916666666667,0,0,0.008072916666666667,0,0)" xlink:href="#X"/><use transform="matrix(0.008072916666666667,0,0,0.008072916666666667,10.14765625,0)" xlink:href="#V"/><use transform="matrix(0.008072916666666667,0,0,0.008072916666666667,15.411197916666667,0)" xlink:href="#X"/><use transform="matrix(0.008072916666666667,0,0,0.008072916666666667,25.55885416666667,0)" xlink:href="#aN"/><use transform="matrix(0.008072916666666667,0,0,0.008072916666666667,35.01223958333334,0)" xlink:href="#X"/><use transform="matrix(0.008072916666666667,0,0,0.008072916666666667,45.15989583333334,0)" xlink:href="#W"/></g></defs></g></svg>